HIERARCHY
ROOT Root
{
  OFFSET 0.0 0.0 0.0
  CHANNELS 6 Xposition Yposition Zposition Zrotation Yrotation Xrotation
  JOINT Hips
  {
    OFFSET 0.0 100.0 0.0
    CHANNELS 6 Xposition Yposition Zposition Zrotation Yrotation Xrotation
    JOINT Spine1
    {
      OFFSET 5.003913 -0.037094 -0.013727
      CHANNELS 3 Zrotation Yrotation Xrotation
      JOINT Spine2
      {
        OFFSET 7.125363 -1e-06 0.0
        CHANNELS 3 Zrotation Yrotation Xrotation
        JOINT Chest
        {
          OFFSET 7.594027 1e-06 0.0
          CHANNELS 3 Zrotation Yrotation Xrotation
          JOINT Neck1
          {
            OFFSET 26.313086 -0.460272 -0.181672
            CHANNELS 3 Zrotation Yrotation Xrotation
            JOINT Neck2
            {
              OFFSET 8.045911 0.0 0.0
              CHANNELS 3 Zrotation Yrotation Xrotation
              JOINT Head
              {
                OFFSET 6.432774 0.0 0.0
                CHANNELS 3 Zrotation Yrotation Xrotation
                JOINT HeadEnd
                {
                  OFFSET 16.169773 0.06451 0.00362
                  CHANNELS 3 Zrotation Yrotation Xrotation
                }
                JOINT Jaw
                {
                  OFFSET 0.108741 3.12938 0.002639
                  CHANNELS 3 Zrotation Yrotation Xrotation
                }
                JOINT LeftEye
                {
                  OFFSET 4.45173 8.166359 3.206392
                  CHANNELS 3 Zrotation Yrotation Xrotation
                }
                JOINT RightEye
                {
                  OFFSET 4.436895 8.135758 -3.222429
                  CHANNELS 3 Zrotation Yrotation Xrotation
                }
              }
            }
          }
          JOINT LeftShoulder
          {
            OFFSET 23.218927 5.195579 1.621656
            CHANNELS 3 Zrotation Yrotation Xrotation
            JOINT LeftArm
            {
              OFFSET 15.902118 2e-06 -2e-06
              CHANNELS 3 Zrotation Yrotation Xrotation
              JOINT LeftForeArm
              {
                OFFSET 28.739307 0.0 -1e-06
                CHANNELS 3 Zrotation Yrotation Xrotation
                JOINT LeftHand
                {
                  OFFSET 27.093981 -4e-06 0.0
                  CHANNELS 3 Zrotation Yrotation Xrotation
                  JOINT LeftHandThumb1
                  {
                    OFFSET 2.276781 3.380274 0.83384
                    CHANNELS 3 Zrotation Yrotation Xrotation
                    JOINT LeftHandThumb2
                    {
                      OFFSET 4.705309 -1e-06 -1e-06
                      CHANNELS 3 Zrotation Yrotation Xrotation
                      JOINT LeftHandThumb3
                      {
                        OFFSET 2.798515 0.0 3e-06
                        CHANNELS 3 Zrotation Yrotation Xrotation
                        JOINT LeftHandThumbEnd
                        {
                          OFFSET 3.180793 4e-06 -4e-06
                          CHANNELS 3 Zrotation Yrotation Xrotation
                        }
                      }
                    }
                  }
                  JOINT LeftHandIndex1
                  {
                    OFFSET 3.247786 2.352677 0.137192
                    CHANNELS 3 Zrotation Yrotation Xrotation
                    JOINT LeftHandIndex2
                    {
                      OFFSET 6.367095 1e-06 0.0
                      CHANNELS 3 Zrotation Yrotation Xrotation
                      JOINT LeftHandIndex3
                      {
                        OFFSET 3.662364 0.0 0.0
                        CHANNELS 3 Zrotation Yrotation Xrotation
                        JOINT LeftHandIndex4
                        {
                          OFFSET 2.329242 4e-06 -4e-06
                          CHANNELS 3 Zrotation Yrotation Xrotation
                          JOINT LeftHandIndexEnd
                          {
                            OFFSET 2.767823 1e-06 0.0
                            CHANNELS 3 Zrotation Yrotation Xrotation
                          }
                        }
                      }
                    }
                  }
                  JOINT LeftHandMiddle1
                  {
                    OFFSET 3.163612 0.945023 -0.406112
                    CHANNELS 3 Zrotation Yrotation Xrotation
                    JOINT LeftHandMiddle2
                    {
                      OFFSET 6.276789 3e-06 0.0
                      CHANNELS 3 Zrotation Yrotation Xrotation
                      JOINT LeftHandMiddle3
                      {
                        OFFSET 4.35652 -1e-06 4e-06
                        CHANNELS 3 Zrotation Yrotation Xrotation
                        JOINT LeftHandMiddle4
                        {
                          OFFSET 2.996877 0.0 8e-06
                          CHANNELS 3 Zrotation Yrotation Xrotation
                          JOINT LeftHandMiddleEnd
                          {
                            OFFSET 2.323256 3e-06 -4e-06
                            CHANNELS 3 Zrotation Yrotation Xrotation
                          }
                        }
                      }
                    }
                  }
                  JOINT LeftHandRing1
                  {
                    OFFSET 2.882606 -0.309162 0.107445
                    CHANNELS 3 Zrotation Yrotation Xrotation
                    JOINT LeftHandRing2
                    {
                      OFFSET 6.033198 0.0 4e-06
                      CHANNELS 3 Zrotation Yrotation Xrotation
                      JOINT LeftHandRing3
                      {
                        OFFSET 4.350578 3e-06 0.0
                        CHANNELS 3 Zrotation Yrotation Xrotation
                        JOINT LeftHandRing4
                        {
                          OFFSET 2.651321 2e-06 -7e-06
                          CHANNELS 3 Zrotation Yrotation Xrotation
                          JOINT LeftHandRingEnd
                          {
                            OFFSET 1.937663 1e-06 -4e-06
                            CHANNELS 3 Zrotation Yrotation Xrotation
                          }
                        }
                      }
                    }
                  }
                  JOINT LeftHandPinky1
                  {
                    OFFSET 2.865315 -1.525436 0.575687
                    CHANNELS 3 Zrotation Yrotation Xrotation
                    JOINT LeftHandPinky2
                    {
                      OFFSET 5.54936 1e-06 -8e-06
                      CHANNELS 3 Zrotation Yrotation Xrotation
                      JOINT LeftHandPinky3
                      {
                        OFFSET 3.070974 0.0 -4e-06
                        CHANNELS 3 Zrotation Yrotation Xrotation
                        JOINT LeftHandPinky4
                        {
                          OFFSET 1.549672 1e-06 0.0
                          CHANNELS 3 Zrotation Yrotation Xrotation
                          JOINT LeftHandPinkyEnd
                          {
                            OFFSET 1.952123 0.0 0.0
                            CHANNELS 3 Zrotation Yrotation Xrotation
                          }
                        }
                      }
                    }
                  }
                }
              }
            }
          }
          JOINT RightShoulder
          {
            OFFSET 23.161716 5.296122 -1.380114
            CHANNELS 3 Zrotation Yrotation Xrotation
            JOINT RightArm
            {
              OFFSET -16.027195 -2e-06 1.1e-05
              CHANNELS 3 Zrotation Yrotation Xrotation
              JOINT RightForeArm
              {
                OFFSET -28.736639 4e-06 2e-06
                CHANNELS 3 Zrotation Yrotation Xrotation
                JOINT RightHand
                {
                  OFFSET -27.133619 6e-06 0.0
                  CHANNELS 3 Zrotation Yrotation Xrotation
                  JOINT RightHandThumb1
                  {
                    OFFSET -2.274328 -3.351035 -0.83067
                    CHANNELS 3 Zrotation Yrotation Xrotation
                    JOINT RightHandThumb2
                    {
                      OFFSET -4.703594 -3e-06 2e-06
                      CHANNELS 3 Zrotation Yrotation Xrotation
                      JOINT RightHandThumb3
                      {
                        OFFSET -2.794935 -4e-06 -3e-06
                        CHANNELS 3 Zrotation Yrotation Xrotation
                        JOINT RightHandThumbEnd
                        {
                          OFFSET -3.183852 4e-06 1e-06
                          CHANNELS 3 Zrotation Yrotation Xrotation
                        }
                      }
                    }
                  }
                  JOINT RightHandIndex1
                  {
                    OFFSET -3.253496 -2.33755 -0.127667
                    CHANNELS 3 Zrotation Yrotation Xrotation
                    JOINT RightHandIndex2
                    {
                      OFFSET -6.344434 0.0 0.0
                      CHANNELS 3 Zrotation Yrotation Xrotation
                      JOINT RightHandIndex3
                      {
                        OFFSET -3.654871 0.0 -8e-06
                        CHANNELS 3 Zrotation Yrotation Xrotation
                        JOINT RightHandIndex4
                        {
                          OFFSET -2.327586 -1e-06 0.0
                          CHANNELS 3 Zrotation Yrotation Xrotation
                          JOINT RightHandIndexEnd
                          {
                            OFFSET -2.770001 3e-06 8e-06
                            CHANNELS 3 Zrotation Yrotation Xrotation
                          }
                        }
                      }
                    }
                  }
                  JOINT RightHandMiddle1
                  {
                    OFFSET -3.168223 -0.944764 0.411762
                    CHANNELS 3 Zrotation Yrotation Xrotation
                    JOINT RightHandMiddle2
                    {
                      OFFSET -6.266691 -1e-06 -4e-06
                      CHANNELS 3 Zrotation Yrotation Xrotation
                      JOINT RightHandMiddle3
                      {
                        OFFSET -4.348901 0.0 0.0
                        CHANNELS 3 Zrotation Yrotation Xrotation
                        JOINT RightHandMiddle4
                        {
                          OFFSET -3.00024 2e-06 -4e-06
                          CHANNELS 3 Zrotation Yrotation Xrotation
                          JOINT RightHandMiddleEnd
                          {
                            OFFSET -2.321477 -4e-06 -4e-06
                            CHANNELS 3 Zrotation Yrotation Xrotation
                          }
                        }
                      }
                    }
                  }
                  JOINT RightHandRing1
                  {
                    OFFSET -2.885654 0.293261 -0.119232
                    CHANNELS 3 Zrotation Yrotation Xrotation
                    JOINT RightHandRing2
                    {
                      OFFSET -6.032835 -1e-06 -4e-06
                      CHANNELS 3 Zrotation Yrotation Xrotation
                      JOINT RightHandRing3
                      {
                        OFFSET -4.33881 0.0 -4e-06
                        CHANNELS 3 Zrotation Yrotation Xrotation
                        JOINT RightHandRing4
                        {
                          OFFSET -2.654903 -4e-06 -4e-06
                          CHANNELS 3 Zrotation Yrotation Xrotation
                          JOINT RightHandRingEnd
                          {
                            OFFSET -1.935122 0.0 4e-06
                            CHANNELS 3 Zrotation Yrotation Xrotation
                          }
                        }
                      }
                    }
                  }
                  JOINT RightHandPinky1
                  {
                    OFFSET -2.866241 1.503904 -0.60527
                    CHANNELS 3 Zrotation Yrotation Xrotation
                    JOINT RightHandPinky2
                    {
                      OFFSET -5.553177 -2e-06 0.0
                      CHANNELS 3 Zrotation Yrotation Xrotation
                      JOINT RightHandPinky3
                      {
                        OFFSET -3.062664 -1e-06 -4e-06
                        CHANNELS 3 Zrotation Yrotation Xrotation
                        JOINT RightHandPinky4
                        {
                          OFFSET -1.546529 2e-06 4e-06
                          CHANNELS 3 Zrotation Yrotation Xrotation
                          JOINT RightHandPinkyEnd
                          {
                            OFFSET -1.952341 0.0 -4e-06
                            CHANNELS 3 Zrotation Yrotation Xrotation
                          }
                        }
                      }
                    }
                  }
                }
              }
            }
          }
        }
      }
    }
    JOINT LeftLeg
    {
      OFFSET -8.443107 2.567604 10.043214
      CHANNELS 3 Zrotation Yrotation Xrotation
      JOINT LeftShin
      {
        OFFSET 43.229198 1e-06 -1e-06
        CHANNELS 3 Zrotation Yrotation Xrotation
        JOINT LeftFoot
        {
          OFFSET 42.298611 1e-06 1e-06
          CHANNELS 3 Zrotation Yrotation Xrotation
          JOINT LeftToeBase
          {
            OFFSET 14.165858 1e-06 0.0
            CHANNELS 3 Zrotation Yrotation Xrotation
            JOINT LeftToeEnd
            {
              OFFSET 6.7141 -0.234461 0.0
              CHANNELS 3 Zrotation Yrotation Xrotation
            }
          }
        }
      }
    }
    JOINT RightLeg
    {
      OFFSET -8.303923 2.592729 -10.047278
      CHANNELS 3 Zrotation Yrotation Xrotation
      JOINT RightShin
      {
        OFFSET -43.369682 0.0 1e-06
        CHANNELS 3 Zrotation Yrotation Xrotation
        JOINT RightFoot
        {
          OFFSET -42.260784 4e-06 2e-06
          CHANNELS 3 Zrotation Yrotation Xrotation
          JOINT RightToeBase
          {
            OFFSET -14.222245 -2e-06 -1e-06
            CHANNELS 3 Zrotation Yrotation Xrotation
            JOINT RightToeEnd
            {
              OFFSET -6.660062 0.232574 -2e-06
              CHANNELS 3 Zrotation Yrotation Xrotation
            }
          }
        }
      }
    }
  }
}
MOTION
Frames: 4
Frame Time: 0.03333333333333333
0.0 0.0 0.0 0.0 -0.0 0.0 -19.701757 48.251991 124.486992 80.811264 -68.943123 98.061775 7.08521 0.421132 0.531885 -6.143637 -0.324657 0.944729 20.189064 2.209252 1.204409 18.342358 -1.284024 2.451549 -2.757504 -0.513429 -1.271039 -25.086637 -1.849682 -2.987158 5e-06 0.0 0.0 -0.239085 -0.076833 0.02213 -0.000297 0.052021 0.132776 0.096404 -0.204683 -0.092907 -47.163326 -54.689884 51.352818 104.300117 2.975755 -25.132563 9.722044 -0.366238 0.039569 70.326447 79.749496 66.99752 17.636618 -26.322741 52.411217 -19.466661 -14.3956 29.410395 -2e-06 -8.774821 -1e-06 15.893799 -18.654547 5.979001 -0.609776 -1.795654 -3.889328 -4.807087 -11.046807 -2.93785 5e-06 -20.976015 0.0 -5.01997 -25.033556 -4.031879 6e-06 1e-06 0.0 -10.634533 -5.68697 -3.565588 10.573275 -17.922949 -3.113901 3e-06 -13.821211 2e-06 -0.501778 -31.181505 -4.027013 -10.413927 -58.694008 6.72244 -13.982712 -7.150196 -2.875041 13.77273 -8.40149 -3.218244 0.347732 -34.211552 0.771658 -0.963029 -17.733368 2.621021 -0.0 0.0 0.0 -17.346416 -20.095215 -4.201783 21.757557 -1.638375 3.866426 1e-06 -6.338824 1e-06 -1.697589 -22.591745 -6.194005 -1e-06 -4e-06 -1e-06 161.159973 -68.339127 20.073563 67.047745 12.217578 -67.209862 30.914345 1.130966 -0.229946 44.240173 58.11731 47.463242 22.182112 -20.375887 49.933319 -16.701815 -16.743528 28.476532 -4e-06 -12.690601 1e-06 15.479927 -17.859531 2.707933 -0.10592 -1.513856 -4.27588 -5.03904 -5.612871 -2.953558 6e-06 -11.02052 -2e-06 -6.111294 -15.895329 -3.840474 1e-06 -1e-06 0.0 -10.283371 -5.680285 -4.341838 11.028296 -11.302404 -2.372635 -1.384267 -14.238579 -6.320121 -0.625433 -26.924183 -3.827603 -3.44501 -48.283287 -4.532827 -13.708525 -7.363472 -3.720938 18.14115 -14.052739 -3.242675 8e-06 -18.787266 -3e-06 -0.429711 -8.456043 2.555503 -1e-06 -0.0 1e-06 -15.923534 -20.094481 -5.473587 30.41921 -7.190827 1.735925 3e-06 -8.162922 -0.0 -1.861899 -22.861467 -6.167942 -0.0 -4e-06 -2e-06 133.11557 -10.287633 -1.056982 93.375031 -3.583364 -0.09084 -70.520096 0.10223 -6.363166 -17.615294 1.76435 2.401955 -1.0 -0.0 -0.0 -66.188232 2.220525 1.04531 107.389702 -0.406503 -0.057886 -81.933945 3.04641 0.259836 -34.38953 0.938299 1.191968 -1.000001 0.0 -0.0 
0.0 0.0 0.0 0.0 -0.0 0.0 -20.105539 48.602383 125.455727 81.079689 -69.082008 99.159431 7.292681 0.188386 0.410471 -6.069227 -0.272106 0.886138 20.162203 1.625588 0.975858 18.660625 -0.469411 2.421804 -2.763194 -0.591925 -1.505011 -25.124157 -2.461143 -3.280345 6e-06 -0.0 -0.0 -0.232894 -0.053346 0.016876 -0.023554 0.047269 0.118122 0.066801 -0.15522 -0.088333 -46.763626 -55.336388 51.089142 104.657486 3.478594 -24.031254 9.7827 -0.313041 0.015085 73.752655 79.803444 71.426895 17.636625 -26.322744 52.411217 -19.466669 -14.395604 29.410402 -3e-06 -8.774823 -1e-06 15.80034 -18.652937 6.046804 -0.609776 -1.795653 -3.88933 -4.807089 -11.046813 -2.937851 5e-06 -20.976023 -1e-06 -5.01997 -25.033564 -4.03188 6e-06 -1e-06 -0.0 -10.634535 -5.686972 -3.565589 10.573276 -17.922956 -3.113903 3e-06 -13.821213 1e-06 -0.501777 -31.181511 -4.027016 -10.409129 -58.702347 6.648209 -13.982716 -7.150199 -2.875043 13.772733 -8.401494 -3.218244 0.347734 -34.211559 0.771655 -0.963029 -17.733372 2.62102 -0.0 0.0 0.0 -17.346418 -20.095221 -4.201784 21.757559 -1.638375 3.866426 1e-06 -6.338825 1e-06 -1.697588 -22.591747 -6.194008 0.0 -5e-06 -2e-06 161.709824 -67.190948 19.490656 65.737221 14.983537 -66.257401 25.355299 0.41537 -0.313493 38.453014 58.724758 40.33704 22.182108 -20.375887 49.933315 -16.701815 -16.74353 28.476534 -3e-06 -12.690601 1e-06 15.894812 -17.797781 2.469078 -0.10592 -1.513856 -4.275882 -5.039041 -5.61287 -2.953556 5e-06 -11.02052 -2e-06 -6.111299 -15.89533 -3.840472 -0.0 -2e-06 0.0 -10.28337 -5.68029 -4.341838 11.028292 -11.302403 -2.372633 -1.384269 -14.238581 -6.320121 -0.625437 -26.924187 -3.827604 -3.467336 -48.588829 -4.389355 -13.708526 -7.363477 -3.720938 18.141151 -14.052739 -3.242677 6e-06 -18.78727 -2e-06 -0.429711 -8.456042 2.555502 -0.0 2e-06 -0.0 -15.923536 -20.094482 -5.473584 30.41921 -7.190824 1.735923 2e-06 -8.162925 -1e-06 -1.861903 -22.861467 -6.167943 0.0 -2e-06 -2e-06 128.393341 -9.34084 -0.687248 101.246902 -3.08283 -0.235583 -72.491043 -1.282382 -5.975213 -17.840298 1.803303 2.434467 -0.999999 0.0 -0.0 -65.093185 1.626296 1.008673 105.891754 -0.035022 -0.04697 -81.726402 2.560963 0.241838 -34.286648 0.915821 1.209844 -1.000001 0.0 -0.0 
0.0 0.0 0.0 0.0 -0.0 0.0 -20.537455 48.899452 126.517418 81.196556 -69.182365 100.334564 7.511655 -0.050883 0.277751 -6.03492 -0.302817 0.807151 20.202553 1.082139 0.738538 18.900255 0.455304 2.478472 -2.770372 -0.714103 -1.682578 -25.110929 -2.964685 -3.484046 6e-06 -1e-06 0.0 -0.234906 -0.050493 0.012663 -0.064198 0.029605 0.098423 0.018746 -0.133862 -0.075809 -46.468468 -55.91618 50.899456 104.963631 3.843434 -23.085175 10.000288 -0.292709 0.011823 77.532623 79.623085 75.99749 17.636627 -26.32272 52.411171 -19.466648 -14.395594 29.410378 -2e-06 -8.774818 -3e-06 15.722853 -18.623953 6.108762 -0.609776 -1.795653 -3.889326 -4.807086 -11.046804 -2.937849 5e-06 -20.976006 -1e-06 -5.019968 -25.033546 -4.031879 6e-06 -1e-06 -0.0 -10.634531 -5.686968 -3.565586 10.573271 -17.922941 -3.113899 3e-06 -13.821201 1e-06 -0.501778 -31.181494 -4.027014 -10.461518 -58.674557 6.632346 -13.982711 -7.150195 -2.875041 13.772726 -8.401489 -3.21824 0.347735 -34.211536 0.771654 -0.963028 -17.73336 2.621019 -0.0 1e-06 -0.0 -17.346413 -20.095209 -4.201781 21.757551 -1.638374 3.866428 1e-06 -6.338821 1e-06 -1.697589 -22.591736 -6.194004 0.0 -4e-06 -2e-06 161.516205 -66.601784 19.977865 65.233437 16.249786 -64.781319 22.141321 -0.160257 -0.3207 34.571583 59.018101 35.996017 22.182114 -20.375896 49.933327 -16.701813 -16.743528 28.476534 -3e-06 -12.6906 1e-06 16.256426 -17.7038 2.300836 -0.105919 -1.513856 -4.275881 -5.039041 -5.612871 -2.953557 4e-06 -11.020523 -0.0 -6.111298 -15.895334 -3.840472 -0.0 0.0 2e-06 -10.283369 -5.680288 -4.34184 11.028292 -11.302404 -2.372633 -1.384269 -14.238583 -6.320122 -0.62544 -26.924191 -3.827601 -3.567373 -48.844376 -4.258557 -13.708521 -7.363477 -3.720941 18.141146 -14.052738 -3.242673 5e-06 -18.787266 -1e-06 -0.429712 -8.456041 2.555503 0.0 1e-06 0.0 -15.923534 -20.094482 -5.473584 30.419207 -7.190824 1.735927 1e-06 -8.162925 -0.0 -1.861903 -22.861469 -6.167942 1e-06 -1e-06 -1e-06 123.628014 -8.268187 -0.218751 108.341774 -2.480294 -0.254404 -74.31041 -2.493838 -5.327378 -18.03743 1.849307 2.439287 -0.999999 0.0 0.0 -63.821705 1.070073 0.837312 104.28923 0.353014 -0.040402 -81.732391 2.04621 0.34035 -34.111015 0.893651 1.235472 -1.000001 0.0 -0.0 
0.0 0.0 0.0 0.0 -0.0 0.0 -20.986343 49.114304 127.614006 81.320633 -69.153328 101.323044 7.74135 -0.307336 0.147427 -6.00229 -0.395983 0.740675 20.330366 0.592957 0.527036 19.106098 1.327208 2.560466 -2.780814 -0.8289 -1.771182 -24.994785 -3.334706 -3.63957 6e-06 -0.0 0.0 -0.23813 -0.066833 0.011062 -0.109709 0.006533 0.078934 -0.032159 -0.144765 -0.058608 -46.254013 -56.446766 50.740021 105.221252 4.061666 -22.399794 10.201199 -0.325269 0.020407 80.757782 79.150429 79.691025 17.636629 -26.322742 52.411213 -19.466665 -14.395602 29.410395 -1e-06 -8.774823 -2e-06 15.67669 -18.549522 6.101788 -0.609776 -1.795654 -3.889328 -4.80709 -11.046811 -2.93785 4e-06 -20.976025 -0.0 -5.019972 -25.033564 -4.031881 6e-06 -0.0 0.0 -10.634536 -5.686972 -3.565588 10.573275 -17.922956 -3.113901 2e-06 -13.821213 1e-06 -0.501778 -31.181511 -4.027017 -10.503955 -58.552773 6.607072 -13.982716 -7.150199 -2.875044 13.772731 -8.401495 -3.218242 0.347733 -34.211555 0.771655 -0.963029 -17.733372 2.621021 -0.0 0.0 -0.0 -17.346422 -20.095224 -4.201783 21.757561 -1.638373 3.866428 1e-06 -6.338825 1e-06 -1.69759 -22.591747 -6.194007 -0.0 -5e-06 -2e-06 160.807678 -66.358406 21.099417 65.427711 16.58712 -63.482681 20.372362 -0.560319 -0.305548 32.473938 59.553875 33.9519 22.182112 -20.375898 49.933323 -16.701813 -16.743528 28.476534 -2e-06 -12.690601 1e-06 16.538076 -17.577225 2.190335 -0.105919 -1.513856 -4.275882 -5.039042 -5.612871 -2.953555 5e-06 -11.020525 -2e-06 -6.111298 -15.895334 -3.84047 1e-06 -1e-06 2e-06 -10.28337 -5.680289 -4.341837 11.028296 -11.302406 -2.372632 -1.384269 -14.238584 -6.320122 -0.62544 -26.924196 -3.827601 -3.649021 -49.023289 -4.167339 -13.708526 -7.363476 -3.720939 18.141148 -14.052739 -3.242674 5e-06 -18.787271 -2e-06 -0.429712 -8.456045 2.555505 -0.0 0.0 0.0 -15.923536 -20.094484 -5.473584 30.419218 -7.190826 1.735926 2e-06 -8.162928 -1e-06 -1.861903 -22.861479 -6.167942 1e-06 -0.0 -2e-06 119.008713 -7.201349 0.259839 114.394096 -1.863496 -0.168801 -75.936653 -3.307148 -4.450855 -18.37229 1.914477 2.402351 -1.0 0.0 0.0 -62.36607 0.688323 0.620002 102.635414 0.707434 -0.041337 -81.56041 1.589983 0.580537 -33.891479 0.87253 1.263761 -1.000001 0.0 -0.0 
